<?xml version="1.0" encoding="UTF-8" standalone="no"?>
<svg
   width="576pt"
   height="432pt"
   viewBox="0 0 576 432"
   version="1.1"
   id="svg124"
   sodipodi:docname="bar_graph_seminar.svg"
   inkscape:version="1.4 (e7c3feb1, 2024-10-09)"
   xmlns:inkscape="http://www.inkscape.org/namespaces/inkscape"
   xmlns:sodipodi="http://sodipodi.sourceforge.net/DTD/sodipodi-0.dtd"
   xmlns:xlink="http://www.w3.org/1999/xlink"
   xmlns="http://www.w3.org/2000/svg"
   xmlns:svg="http://www.w3.org/2000/svg"
   xmlns:rdf="http://www.w3.org/1999/02/22-rdf-syntax-ns#"
   xmlns:cc="http://creativecommons.org/ns#"
   xmlns:dc="http://purl.org/dc/elements/1.1/">
  <sodipodi:namedview
     id="namedview124"
     pagecolor="#ffffff"
     bordercolor="#000000"
     borderopacity="0.25"
     inkscape:showpageshadow="2"
     inkscape:pageopacity="0.0"
     inkscape:pagecheckerboard="0"
     inkscape:deskcolor="#d1d1d1"
     inkscape:document-units="pt"
     inkscape:zoom="0.73062022"
     inkscape:cx="390.76389"
     inkscape:cy="299.74533"
     inkscape:window-width="1920"
     inkscape:window-height="1177"
     inkscape:window-x="135"
     inkscape:window-y="1010"
     inkscape:window-maximized="0"
     inkscape:current-layer="axes_1" />
  <metadata
     id="metadata1">
    <rdf:RDF>
      <cc:Work>
        <dc:type
           rdf:resource="http://purl.org/dc/dcmitype/StillImage" />
        <dc:date>2026-03-11T16:38:27.247523</dc:date>
        <dc:format>image/svg+xml</dc:format>
        <dc:creator>
          <cc:Agent>
            <dc:title>Matplotlib v3.9.4, https://matplotlib.org/</dc:title>
          </cc:Agent>
        </dc:creator>
      </cc:Work>
    </rdf:RDF>
  </metadata>
  <defs
     id="defs1">
    <style
       type="text/css"
       id="style1">*{stroke-linejoin: round; stroke-linecap: butt}</style>
  </defs>
  <g
     id="figure_1">
    <g
       id="patch_1">
      <path
         d="M 0 432  L 576 432  L 576 0  L 0 0  z "
         style="fill: #ffffff"
         id="path1" />
    </g>
    <g
       id="axes_1">
      <g
         id="patch_2">
        <path
           d="M 81.83 332.2  L 554.4 332.2  L 554.4 49.2  L 81.83 49.2  z "
           style="fill: #ffffff"
           id="path2" />
      </g>
      <g
         id="matplotlib.axis_1">
        <g
           id="xtick_1">
          <g
             id="line2d_1">
            <defs
               id="defs2">
              <path
                 id="m6e60bb498f"
                 d="M 0 0  L 0 3.5  "
                 style="stroke: #000000; stroke-width: 0.8" />
            </defs>
            <g
               id="g2">
              <use
                 xlink:href="#m6e60bb498f"
                 x="164.683182"
                 y="332.2"
                 style="stroke: #000000; stroke-width: 0.8"
                 id="use2" />
            </g>
          </g>
          <g
             id="text_1">
            <!-- AerosolSense -->
            <g
               transform="translate(97.551932 354.396875) scale(0.2 -0.2)"
               id="g14">
              <defs
                 id="defs3">
                <path
                   id="DejaVuSans-41"
                   d="M 2188 4044  L 1331 1722  L 3047 1722  L 2188 4044  z M 1831 4666  L 2547 4666  L 4325 0  L 3669 0  L 3244 1197  L 1141 1197  L 716 0  L 50 0  L 1831 4666  z "
                   transform="scale(0.015625)" />
                <path
                   id="DejaVuSans-65"
                   d="M 3597 1894  L 3597 1613  L 953 1613  Q 991 1019 1311 708  Q 1631 397 2203 397  Q 2534 397 2845 478  Q 3156 559 3463 722  L 3463 178  Q 3153 47 2828 -22  Q 2503 -91 2169 -91  Q 1331 -91 842 396  Q 353 884 353 1716  Q 353 2575 817 3079  Q 1281 3584 2069 3584  Q 2775 3584 3186 3129  Q 3597 2675 3597 1894  z M 3022 2063  Q 3016 2534 2758 2815  Q 2500 3097 2075 3097  Q 1594 3097 1305 2825  Q 1016 2553 972 2059  L 3022 2063  z "
                   transform="scale(0.015625)" />
                <path
                   id="DejaVuSans-72"
                   d="M 2631 2963  Q 2534 3019 2420 3045  Q 2306 3072 2169 3072  Q 1681 3072 1420 2755  Q 1159 2438 1159 1844  L 1159 0  L 581 0  L 581 3500  L 1159 3500  L 1159 2956  Q 1341 3275 1631 3429  Q 1922 3584 2338 3584  Q 2397 3584 2469 3576  Q 2541 3569 2628 3553  L 2631 2963  z "
                   transform="scale(0.015625)" />
                <path
                   id="DejaVuSans-6f"
                   d="M 1959 3097  Q 1497 3097 1228 2736  Q 959 2375 959 1747  Q 959 1119 1226 758  Q 1494 397 1959 397  Q 2419 397 2687 759  Q 2956 1122 2956 1747  Q 2956 2369 2687 2733  Q 2419 3097 1959 3097  z M 1959 3584  Q 2709 3584 3137 3096  Q 3566 2609 3566 1747  Q 3566 888 3137 398  Q 2709 -91 1959 -91  Q 1206 -91 779 398  Q 353 888 353 1747  Q 353 2609 779 3096  Q 1206 3584 1959 3584  z "
                   transform="scale(0.015625)" />
                <path
                   id="DejaVuSans-73"
                   d="M 2834 3397  L 2834 2853  Q 2591 2978 2328 3040  Q 2066 3103 1784 3103  Q 1356 3103 1142 2972  Q 928 2841 928 2578  Q 928 2378 1081 2264  Q 1234 2150 1697 2047  L 1894 2003  Q 2506 1872 2764 1633  Q 3022 1394 3022 966  Q 3022 478 2636 193  Q 2250 -91 1575 -91  Q 1294 -91 989 -36  Q 684 19 347 128  L 347 722  Q 666 556 975 473  Q 1284 391 1588 391  Q 1994 391 2212 530  Q 2431 669 2431 922  Q 2431 1156 2273 1281  Q 2116 1406 1581 1522  L 1381 1569  Q 847 1681 609 1914  Q 372 2147 372 2553  Q 372 3047 722 3315  Q 1072 3584 1716 3584  Q 2034 3584 2315 3537  Q 2597 3491 2834 3397  z "
                   transform="scale(0.015625)" />
                <path
                   id="DejaVuSans-6c"
                   d="M 603 4863  L 1178 4863  L 1178 0  L 603 0  L 603 4863  z "
                   transform="scale(0.015625)" />
                <path
                   id="DejaVuSans-53"
                   d="M 3425 4513  L 3425 3897  Q 3066 4069 2747 4153  Q 2428 4238 2131 4238  Q 1616 4238 1336 4038  Q 1056 3838 1056 3469  Q 1056 3159 1242 3001  Q 1428 2844 1947 2747  L 2328 2669  Q 3034 2534 3370 2195  Q 3706 1856 3706 1288  Q 3706 609 3251 259  Q 2797 -91 1919 -91  Q 1588 -91 1214 -16  Q 841 59 441 206  L 441 856  Q 825 641 1194 531  Q 1563 422 1919 422  Q 2459 422 2753 634  Q 3047 847 3047 1241  Q 3047 1584 2836 1778  Q 2625 1972 2144 2069  L 1759 2144  Q 1053 2284 737 2584  Q 422 2884 422 3419  Q 422 4038 858 4394  Q 1294 4750 2059 4750  Q 2388 4750 2728 4690  Q 3069 4631 3425 4513  z "
                   transform="scale(0.015625)" />
                <path
                   id="DejaVuSans-6e"
                   d="M 3513 2113  L 3513 0  L 2938 0  L 2938 2094  Q 2938 2591 2744 2837  Q 2550 3084 2163 3084  Q 1697 3084 1428 2787  Q 1159 2491 1159 1978  L 1159 0  L 581 0  L 581 3500  L 1159 3500  L 1159 2956  Q 1366 3272 1645 3428  Q 1925 3584 2291 3584  Q 2894 3584 3203 3211  Q 3513 2838 3513 2113  z "
                   transform="scale(0.015625)" />
              </defs>
              <use
                 xlink:href="#DejaVuSans-41"
                 id="use3" />
              <use
                 xlink:href="#DejaVuSans-65"
                 x="66.658203"
                 id="use4" />
              <use
                 xlink:href="#DejaVuSans-72"
                 x="128.181641"
                 id="use5" />
              <use
                 xlink:href="#DejaVuSans-6f"
                 x="167.044922"
                 id="use6" />
              <use
                 xlink:href="#DejaVuSans-73"
                 x="228.226562"
                 id="use7" />
              <use
                 xlink:href="#DejaVuSans-6f"
                 x="280.326172"
                 id="use8" />
              <use
                 xlink:href="#DejaVuSans-6c"
                 x="341.507812"
                 id="use9" />
              <use
                 xlink:href="#DejaVuSans-53"
                 x="369.291016"
                 id="use10" />
              <use
                 xlink:href="#DejaVuSans-65"
                 x="432.767578"
                 id="use11" />
              <use
                 xlink:href="#DejaVuSans-6e"
                 x="494.291016"
                 id="use12" />
              <use
                 xlink:href="#DejaVuSans-73"
                 x="557.669922"
                 id="use13" />
              <use
                 xlink:href="#DejaVuSans-65"
                 x="609.769531"
                 id="use14" />
            </g>
          </g>
        </g>
        <g
           id="xtick_2">
          <g
             id="line2d_2">
            <g
               id="g15">
              <use
                 xlink:href="#m6e60bb498f"
                 x="318.115"
                 y="332.2"
                 style="stroke: #000000; stroke-width: 0.8"
                 id="use15" />
            </g>
          </g>
          <g
             id="text_2">
            <!-- Apollo -->
            <g
               transform="translate(287.132187 354.396875) scale(0.2 -0.2)"
               id="g21">
              <defs
                 id="defs15">
                <path
                   id="DejaVuSans-70"
                   d="M 1159 525  L 1159 -1331  L 581 -1331  L 581 3500  L 1159 3500  L 1159 2969  Q 1341 3281 1617 3432  Q 1894 3584 2278 3584  Q 2916 3584 3314 3078  Q 3713 2572 3713 1747  Q 3713 922 3314 415  Q 2916 -91 2278 -91  Q 1894 -91 1617 61  Q 1341 213 1159 525  z M 3116 1747  Q 3116 2381 2855 2742  Q 2594 3103 2138 3103  Q 1681 3103 1420 2742  Q 1159 2381 1159 1747  Q 1159 1113 1420 752  Q 1681 391 2138 391  Q 2594 391 2855 752  Q 3116 1113 3116 1747  z "
                   transform="scale(0.015625)" />
              </defs>
              <use
                 xlink:href="#DejaVuSans-41"
                 id="use16" />
              <use
                 xlink:href="#DejaVuSans-70"
                 x="68.408203"
                 id="use17" />
              <use
                 xlink:href="#DejaVuSans-6f"
                 x="131.884766"
                 id="use18" />
              <use
                 xlink:href="#DejaVuSans-6c"
                 x="193.066406"
                 id="use19" />
              <use
                 xlink:href="#DejaVuSans-6c"
                 x="220.849609"
                 id="use20" />
              <use
                 xlink:href="#DejaVuSans-6f"
                 x="248.632812"
                 id="use21" />
            </g>
          </g>
        </g>
        <g
           id="xtick_3">
          <g
             id="line2d_3">
            <g
               id="g22">
              <use
                 xlink:href="#m6e60bb498f"
                 x="471.546818"
                 y="332.2"
                 style="stroke: #000000; stroke-width: 0.8"
                 id="use22" />
            </g>
          </g>
          <g
             id="text_3">
            <!-- Cub -->
            <g
               transform="translate(451.878068 354.396875) scale(0.2 -0.2)"
               id="g25">
              <defs
                 id="defs22">
                <path
                   id="DejaVuSans-43"
                   d="M 4122 4306  L 4122 3641  Q 3803 3938 3442 4084  Q 3081 4231 2675 4231  Q 1875 4231 1450 3742  Q 1025 3253 1025 2328  Q 1025 1406 1450 917  Q 1875 428 2675 428  Q 3081 428 3442 575  Q 3803 722 4122 1019  L 4122 359  Q 3791 134 3420 21  Q 3050 -91 2638 -91  Q 1578 -91 968 557  Q 359 1206 359 2328  Q 359 3453 968 4101  Q 1578 4750 2638 4750  Q 3056 4750 3426 4639  Q 3797 4528 4122 4306  z "
                   transform="scale(0.015625)" />
                <path
                   id="DejaVuSans-75"
                   d="M 544 1381  L 544 3500  L 1119 3500  L 1119 1403  Q 1119 906 1312 657  Q 1506 409 1894 409  Q 2359 409 2629 706  Q 2900 1003 2900 1516  L 2900 3500  L 3475 3500  L 3475 0  L 2900 0  L 2900 538  Q 2691 219 2414 64  Q 2138 -91 1772 -91  Q 1169 -91 856 284  Q 544 659 544 1381  z M 1991 3584  L 1991 3584  z "
                   transform="scale(0.015625)" />
                <path
                   id="DejaVuSans-62"
                   d="M 3116 1747  Q 3116 2381 2855 2742  Q 2594 3103 2138 3103  Q 1681 3103 1420 2742  Q 1159 2381 1159 1747  Q 1159 1113 1420 752  Q 1681 391 2138 391  Q 2594 391 2855 752  Q 3116 1113 3116 1747  z M 1159 2969  Q 1341 3281 1617 3432  Q 1894 3584 2278 3584  Q 2916 3584 3314 3078  Q 3713 2572 3713 1747  Q 3713 922 3314 415  Q 2916 -91 2278 -91  Q 1894 -91 1617 61  Q 1341 213 1159 525  L 1159 0  L 581 0  L 581 4863  L 1159 4863  L 1159 2969  z "
                   transform="scale(0.015625)" />
              </defs>
              <use
                 xlink:href="#DejaVuSans-43"
                 id="use23" />
              <use
                 xlink:href="#DejaVuSans-75"
                 x="69.824219"
                 id="use24" />
              <use
                 xlink:href="#DejaVuSans-62"
                 x="133.203125"
                 id="use25" />
            </g>
          </g>
        </g>
        <g
           id="text_4">
          <!-- Sampler -->
          <g
             transform="translate(268.185625 404.7925) scale(0.24 -0.24)"
             id="g32">
            <defs
               id="defs25">
              <path
                 id="DejaVuSans-61"
                 d="M 2194 1759  Q 1497 1759 1228 1600  Q 959 1441 959 1056  Q 959 750 1161 570  Q 1363 391 1709 391  Q 2188 391 2477 730  Q 2766 1069 2766 1631  L 2766 1759  L 2194 1759  z M 3341 1997  L 3341 0  L 2766 0  L 2766 531  Q 2569 213 2275 61  Q 1981 -91 1556 -91  Q 1019 -91 701 211  Q 384 513 384 1019  Q 384 1609 779 1909  Q 1175 2209 1959 2209  L 2766 2209  L 2766 2266  Q 2766 2663 2505 2880  Q 2244 3097 1772 3097  Q 1472 3097 1187 3025  Q 903 2953 641 2809  L 641 3341  Q 956 3463 1253 3523  Q 1550 3584 1831 3584  Q 2591 3584 2966 3190  Q 3341 2797 3341 1997  z "
                 transform="scale(0.015625)" />
              <path
                 id="DejaVuSans-6d"
                 d="M 3328 2828  Q 3544 3216 3844 3400  Q 4144 3584 4550 3584  Q 5097 3584 5394 3201  Q 5691 2819 5691 2113  L 5691 0  L 5113 0  L 5113 2094  Q 5113 2597 4934 2840  Q 4756 3084 4391 3084  Q 3944 3084 3684 2787  Q 3425 2491 3425 1978  L 3425 0  L 2847 0  L 2847 2094  Q 2847 2600 2669 2842  Q 2491 3084 2119 3084  Q 1678 3084 1418 2786  Q 1159 2488 1159 1978  L 1159 0  L 581 0  L 581 3500  L 1159 3500  L 1159 2956  Q 1356 3278 1631 3431  Q 1906 3584 2284 3584  Q 2666 3584 2933 3390  Q 3200 3197 3328 2828  z "
                 transform="scale(0.015625)" />
            </defs>
            <use
               xlink:href="#DejaVuSans-53"
               id="use26" />
            <use
               xlink:href="#DejaVuSans-61"
               x="63.476562"
               id="use27" />
            <use
               xlink:href="#DejaVuSans-6d"
               x="124.755859"
               id="use28" />
            <use
               xlink:href="#DejaVuSans-70"
               x="222.167969"
               id="use29" />
            <use
               xlink:href="#DejaVuSans-6c"
               x="285.644531"
               id="use30" />
            <use
               xlink:href="#DejaVuSans-65"
               x="313.427734"
               id="use31" />
            <use
               xlink:href="#DejaVuSans-72"
               x="374.951172"
               id="use32" />
          </g>
        </g>
      </g>
      <g
         id="matplotlib.axis_2">
        <g
           id="ytick_1">
          <g
             id="line2d_4">
            <path
               d="M 81.83 332.2  L 554.4 332.2  "
               clip-path="url(#pabea1d7de5)"
               style="fill: none; stroke-dasharray: 2.96,1.28; stroke-dashoffset: 0; stroke: #b0b0b0; stroke-opacity: 0.4; stroke-width: 0.8"
               id="path32" />
          </g>
          <g
             id="line2d_5">
            <defs
               id="defs32">
              <path
                 id="m86d2a972cc"
                 d="M 0 0  L -3.5 0  "
                 style="stroke: #000000; stroke-width: 0.8" />
            </defs>
            <g
               id="g33">
              <use
                 xlink:href="#m86d2a972cc"
                 x="81.83"
                 y="332.2"
                 style="stroke: #000000; stroke-width: 0.8"
                 id="use33" />
            </g>
          </g>
          <g
             id="text_5">
            <!-- 0 -->
            <g
               transform="translate(62.105 339.798437) scale(0.2 -0.2)"
               id="g34">
              <defs
                 id="defs33">
                <path
                   id="DejaVuSans-30"
                   d="M 2034 4250  Q 1547 4250 1301 3770  Q 1056 3291 1056 2328  Q 1056 1369 1301 889  Q 1547 409 2034 409  Q 2525 409 2770 889  Q 3016 1369 3016 2328  Q 3016 3291 2770 3770  Q 2525 4250 2034 4250  z M 2034 4750  Q 2819 4750 3233 4129  Q 3647 3509 3647 2328  Q 3647 1150 3233 529  Q 2819 -91 2034 -91  Q 1250 -91 836 529  Q 422 1150 422 2328  Q 422 3509 836 4129  Q 1250 4750 2034 4750  z "
                   transform="scale(0.015625)" />
              </defs>
              <use
                 xlink:href="#DejaVuSans-30"
                 id="use34" />
            </g>
          </g>
        </g>
        <g
           id="ytick_2">
          <g
             id="line2d_6">
            <path
               d="M 81.83 285.033333  L 554.4 285.033333  "
               clip-path="url(#pabea1d7de5)"
               style="fill: none; stroke-dasharray: 2.96,1.28; stroke-dashoffset: 0; stroke: #b0b0b0; stroke-opacity: 0.4; stroke-width: 0.8"
               id="path34" />
          </g>
          <g
             id="line2d_7">
            <g
               id="g35">
              <use
                 xlink:href="#m86d2a972cc"
                 x="81.83"
                 y="285.033333"
                 style="stroke: #000000; stroke-width: 0.8"
                 id="use35" />
            </g>
          </g>
          <g
             id="text_6">
            <!-- 5 -->
            <g
               transform="translate(62.105 292.631771) scale(0.2 -0.2)"
               id="g36">
              <defs
                 id="defs35">
                <path
                   id="DejaVuSans-35"
                   d="M 691 4666  L 3169 4666  L 3169 4134  L 1269 4134  L 1269 2991  Q 1406 3038 1543 3061  Q 1681 3084 1819 3084  Q 2600 3084 3056 2656  Q 3513 2228 3513 1497  Q 3513 744 3044 326  Q 2575 -91 1722 -91  Q 1428 -91 1123 -41  Q 819 9 494 109  L 494 744  Q 775 591 1075 516  Q 1375 441 1709 441  Q 2250 441 2565 725  Q 2881 1009 2881 1497  Q 2881 1984 2565 2268  Q 2250 2553 1709 2553  Q 1456 2553 1204 2497  Q 953 2441 691 2322  L 691 4666  z "
                   transform="scale(0.015625)" />
              </defs>
              <use
                 xlink:href="#DejaVuSans-35"
                 id="use36" />
            </g>
          </g>
        </g>
        <g
           id="ytick_3">
          <g
             id="line2d_8">
            <path
               d="M 81.83 237.866667  L 554.4 237.866667  "
               clip-path="url(#pabea1d7de5)"
               style="fill: none; stroke-dasharray: 2.96,1.28; stroke-dashoffset: 0; stroke: #b0b0b0; stroke-opacity: 0.4; stroke-width: 0.8"
               id="path36" />
          </g>
          <g
             id="line2d_9">
            <g
               id="g37">
              <use
                 xlink:href="#m86d2a972cc"
                 x="81.83"
                 y="237.866667"
                 style="stroke: #000000; stroke-width: 0.8"
                 id="use37" />
            </g>
          </g>
          <g
             id="text_7">
            <!-- 10 -->
            <g
               transform="translate(49.38 245.465104) scale(0.2 -0.2)"
               id="g39">
              <defs
                 id="defs37">
                <path
                   id="DejaVuSans-31"
                   d="M 794 531  L 1825 531  L 1825 4091  L 703 3866  L 703 4441  L 1819 4666  L 2450 4666  L 2450 531  L 3481 531  L 3481 0  L 794 0  L 794 531  z "
                   transform="scale(0.015625)" />
              </defs>
              <use
                 xlink:href="#DejaVuSans-31"
                 id="use38" />
              <use
                 xlink:href="#DejaVuSans-30"
                 x="63.623047"
                 id="use39" />
            </g>
          </g>
        </g>
        <g
           id="ytick_4">
          <g
             id="line2d_10">
            <path
               d="M 81.83 190.7  L 554.4 190.7  "
               clip-path="url(#pabea1d7de5)"
               style="fill: none; stroke-dasharray: 2.96,1.28; stroke-dashoffset: 0; stroke: #b0b0b0; stroke-opacity: 0.4; stroke-width: 0.8"
               id="path39" />
          </g>
          <g
             id="line2d_11">
            <g
               id="g40">
              <use
                 xlink:href="#m86d2a972cc"
                 x="81.83"
                 y="190.7"
                 style="stroke: #000000; stroke-width: 0.8"
                 id="use40" />
            </g>
          </g>
          <g
             id="text_8">
            <!-- 15 -->
            <g
               transform="translate(49.38 198.298437) scale(0.2 -0.2)"
               id="g42">
              <use
                 xlink:href="#DejaVuSans-31"
                 id="use41" />
              <use
                 xlink:href="#DejaVuSans-35"
                 x="63.623047"
                 id="use42" />
            </g>
          </g>
        </g>
        <g
           id="ytick_5">
          <g
             id="line2d_12">
            <path
               d="M 81.83 143.533333  L 554.4 143.533333  "
               clip-path="url(#pabea1d7de5)"
               style="fill: none; stroke-dasharray: 2.96,1.28; stroke-dashoffset: 0; stroke: #b0b0b0; stroke-opacity: 0.4; stroke-width: 0.8"
               id="path42" />
          </g>
          <g
             id="line2d_13">
            <g
               id="g43">
              <use
                 xlink:href="#m86d2a972cc"
                 x="81.83"
                 y="143.533333"
                 style="stroke: #000000; stroke-width: 0.8"
                 id="use43" />
            </g>
          </g>
          <g
             id="text_9">
            <!-- 20 -->
            <g
               transform="translate(49.38 151.131771) scale(0.2 -0.2)"
               id="g45">
              <defs
                 id="defs43">
                <path
                   id="DejaVuSans-32"
                   d="M 1228 531  L 3431 531  L 3431 0  L 469 0  L 469 531  Q 828 903 1448 1529  Q 2069 2156 2228 2338  Q 2531 2678 2651 2914  Q 2772 3150 2772 3378  Q 2772 3750 2511 3984  Q 2250 4219 1831 4219  Q 1534 4219 1204 4116  Q 875 4013 500 3803  L 500 4441  Q 881 4594 1212 4672  Q 1544 4750 1819 4750  Q 2544 4750 2975 4387  Q 3406 4025 3406 3419  Q 3406 3131 3298 2873  Q 3191 2616 2906 2266  Q 2828 2175 2409 1742  Q 1991 1309 1228 531  z "
                   transform="scale(0.015625)" />
              </defs>
              <use
                 xlink:href="#DejaVuSans-32"
                 id="use44" />
              <use
                 xlink:href="#DejaVuSans-30"
                 x="63.623047"
                 id="use45" />
            </g>
          </g>
        </g>
        <g
           id="ytick_6">
          <g
             id="line2d_14">
            <path
               d="M 81.83 96.366667  L 554.4 96.366667  "
               clip-path="url(#pabea1d7de5)"
               style="fill: none; stroke-dasharray: 2.96,1.28; stroke-dashoffset: 0; stroke: #b0b0b0; stroke-opacity: 0.4; stroke-width: 0.8"
               id="path45" />
          </g>
          <g
             id="line2d_15">
            <g
               id="g46">
              <use
                 xlink:href="#m86d2a972cc"
                 x="81.83"
                 y="96.366667"
                 style="stroke: #000000; stroke-width: 0.8"
                 id="use46" />
            </g>
          </g>
          <g
             id="text_10">
            <!-- 25 -->
            <g
               transform="translate(49.38 103.965104) scale(0.2 -0.2)"
               id="g48">
              <use
                 xlink:href="#DejaVuSans-32"
                 id="use47" />
              <use
                 xlink:href="#DejaVuSans-35"
                 x="63.623047"
                 id="use48" />
            </g>
          </g>
        </g>
        <g
           id="ytick_7">
          <g
             id="line2d_16">
            <path
               d="M 81.83 49.2  L 554.4 49.2  "
               clip-path="url(#pabea1d7de5)"
               style="fill: none; stroke-dasharray: 2.96,1.28; stroke-dashoffset: 0; stroke: #b0b0b0; stroke-opacity: 0.4; stroke-width: 0.8"
               id="path48" />
          </g>
          <g
             id="line2d_17">
            <g
               id="g49">
              <use
                 xlink:href="#m86d2a972cc"
                 x="81.83"
                 y="49.2"
                 style="stroke: #000000; stroke-width: 0.8"
                 id="use49" />
            </g>
          </g>
          <g
             id="text_11">
            <!-- 30 -->
            <g
               transform="translate(49.38 56.798437) scale(0.2 -0.2)"
               id="g51">
              <defs
                 id="defs49">
                <path
                   id="DejaVuSans-33"
                   d="M 2597 2516  Q 3050 2419 3304 2112  Q 3559 1806 3559 1356  Q 3559 666 3084 287  Q 2609 -91 1734 -91  Q 1441 -91 1130 -33  Q 819 25 488 141  L 488 750  Q 750 597 1062 519  Q 1375 441 1716 441  Q 2309 441 2620 675  Q 2931 909 2931 1356  Q 2931 1769 2642 2001  Q 2353 2234 1838 2234  L 1294 2234  L 1294 2753  L 1863 2753  Q 2328 2753 2575 2939  Q 2822 3125 2822 3475  Q 2822 3834 2567 4026  Q 2313 4219 1838 4219  Q 1578 4219 1281 4162  Q 984 4106 628 3988  L 628 4550  Q 988 4650 1302 4700  Q 1616 4750 1894 4750  Q 2613 4750 3031 4423  Q 3450 4097 3450 3541  Q 3450 3153 3228 2886  Q 3006 2619 2597 2516  z "
                   transform="scale(0.015625)" />
              </defs>
              <use
                 xlink:href="#DejaVuSans-33"
                 id="use50" />
              <use
                 xlink:href="#DejaVuSans-30"
                 x="63.623047"
                 id="use51" />
            </g>
          </g>
        </g>
        <g
           id="text_12">
          <!-- Detection % -->
          <g
             transform="translate(40.38875 264.21125) rotate(-90) scale(0.24 -0.24)"
             id="g62">
            <defs
               id="defs51">
              <path
                 id="DejaVuSans-44"
                 d="M 1259 4147  L 1259 519  L 2022 519  Q 2988 519 3436 956  Q 3884 1394 3884 2338  Q 3884 3275 3436 3711  Q 2988 4147 2022 4147  L 1259 4147  z M 628 4666  L 1925 4666  Q 3281 4666 3915 4102  Q 4550 3538 4550 2338  Q 4550 1131 3912 565  Q 3275 0 1925 0  L 628 0  L 628 4666  z "
                 transform="scale(0.015625)" />
              <path
                 id="DejaVuSans-74"
                 d="M 1172 4494  L 1172 3500  L 2356 3500  L 2356 3053  L 1172 3053  L 1172 1153  Q 1172 725 1289 603  Q 1406 481 1766 481  L 2356 481  L 2356 0  L 1766 0  Q 1100 0 847 248  Q 594 497 594 1153  L 594 3053  L 172 3053  L 172 3500  L 594 3500  L 594 4494  L 1172 4494  z "
                 transform="scale(0.015625)" />
              <path
                 id="DejaVuSans-63"
                 d="M 3122 3366  L 3122 2828  Q 2878 2963 2633 3030  Q 2388 3097 2138 3097  Q 1578 3097 1268 2742  Q 959 2388 959 1747  Q 959 1106 1268 751  Q 1578 397 2138 397  Q 2388 397 2633 464  Q 2878 531 3122 666  L 3122 134  Q 2881 22 2623 -34  Q 2366 -91 2075 -91  Q 1284 -91 818 406  Q 353 903 353 1747  Q 353 2603 823 3093  Q 1294 3584 2113 3584  Q 2378 3584 2631 3529  Q 2884 3475 3122 3366  z "
                 transform="scale(0.015625)" />
              <path
                 id="DejaVuSans-69"
                 d="M 603 3500  L 1178 3500  L 1178 0  L 603 0  L 603 3500  z M 603 4863  L 1178 4863  L 1178 4134  L 603 4134  L 603 4863  z "
                 transform="scale(0.015625)" />
              <path
                 id="DejaVuSans-20"
                 transform="scale(0.015625)" />
              <path
                 id="DejaVuSans-25"
                 d="M 4653 2053  Q 4381 2053 4226 1822  Q 4072 1591 4072 1178  Q 4072 772 4226 539  Q 4381 306 4653 306  Q 4919 306 5073 539  Q 5228 772 5228 1178  Q 5228 1588 5073 1820  Q 4919 2053 4653 2053  z M 4653 2450  Q 5147 2450 5437 2106  Q 5728 1763 5728 1178  Q 5728 594 5436 251  Q 5144 -91 4653 -91  Q 4153 -91 3862 251  Q 3572 594 3572 1178  Q 3572 1766 3864 2108  Q 4156 2450 4653 2450  z M 1428 4353  Q 1159 4353 1004 4120  Q 850 3888 850 3481  Q 850 3069 1003 2837  Q 1156 2606 1428 2606  Q 1700 2606 1854 2837  Q 2009 3069 2009 3481  Q 2009 3884 1853 4118  Q 1697 4353 1428 4353  z M 4250 4750  L 4750 4750  L 1831 -91  L 1331 -91  L 4250 4750  z M 1428 4750  Q 1922 4750 2215 4408  Q 2509 4066 2509 3481  Q 2509 2891 2217 2550  Q 1925 2209 1428 2209  Q 931 2209 642 2551  Q 353 2894 353 3481  Q 353 4063 643 4406  Q 934 4750 1428 4750  z "
                 transform="scale(0.015625)" />
            </defs>
            <use
               xlink:href="#DejaVuSans-44"
               id="use52" />
            <use
               xlink:href="#DejaVuSans-65"
               x="77.001953"
               id="use53" />
            <use
               xlink:href="#DejaVuSans-74"
               x="138.525391"
               id="use54" />
            <use
               xlink:href="#DejaVuSans-65"
               x="177.734375"
               id="use55" />
            <use
               xlink:href="#DejaVuSans-63"
               x="239.257812"
               id="use56" />
            <use
               xlink:href="#DejaVuSans-74"
               x="294.238281"
               id="use57" />
            <use
               xlink:href="#DejaVuSans-69"
               x="333.447266"
               id="use58" />
            <use
               xlink:href="#DejaVuSans-6f"
               x="361.230469"
               id="use59" />
            <use
               xlink:href="#DejaVuSans-6e"
               x="422.412109"
               id="use60" />
            <use
               xlink:href="#DejaVuSans-20"
               x="485.791016"
               id="use61" />
            <use
               xlink:href="#DejaVuSans-25"
               x="517.578125"
               id="use62" />
          </g>
        </g>
      </g>
      <g
         id="patch_3">
        <path
           d="M 103.310455 332.2  L 226.055909 332.2  L 226.055909 255.79  L 103.310455 255.79  z "
           clip-path="url(#pabea1d7de5)"
           style="fill: #4c78a8; stroke: #000000; stroke-linejoin: miter"
           id="path62" />
      </g>
      <g
         id="patch_4">
        <path
           d="M 256.742273 332.2  L 379.487727 332.2  L 379.487727 328.426667  L 256.742273 328.426667  z "
           clip-path="url(#pabea1d7de5)"
           style="fill: #4c78a8; stroke: #000000; stroke-linejoin: miter"
           id="path63" />
      </g>
      <g
         id="patch_5">
        <path
           d="M 410.174091 332.2  L 532.919545 332.2  L 532.919545 224.66  L 410.174091 224.66  z "
           clip-path="url(#pabea1d7de5)"
           style="fill: #4c78a8; stroke: #000000; stroke-linejoin: miter"
           id="path64" />
      </g>
      <g
         id="LineCollection_1">
        <path
           d="M 164.683182 283.135822  L 164.683182 228.444178  "
           clip-path="url(#pabea1d7de5)"
           style="fill: none; stroke: #000000; stroke-width: 1.5"
           id="path65" />
        <path
           d="M 318.115 331.308598  L 318.115 325.544736  "
           clip-path="url(#pabea1d7de5)"
           style="fill: none; stroke: #000000; stroke-width: 1.5"
           id="path66" />
        <path
           d="M 471.546818 257.10573  L 471.546818 192.21427  "
           clip-path="url(#pabea1d7de5)"
           style="fill: none; stroke: #000000; stroke-width: 1.5"
           id="path67" />
      </g>
      <g
         id="line2d_18">
        <defs
           id="defs67">
          <path
             id="m43963766b8"
             d="M 6 0  L -6 -0  "
             style="stroke: #000000" />
        </defs>
        <g
           clip-path="url(#pabea1d7de5)"
           id="g69">
          <use
             xlink:href="#m43963766b8"
             x="164.683182"
             y="283.135822"
             style="stroke: #000000"
             id="use67" />
          <use
             xlink:href="#m43963766b8"
             x="318.115"
             y="331.308598"
             style="stroke: #000000"
             id="use68" />
          <use
             xlink:href="#m43963766b8"
             x="471.546818"
             y="257.10573"
             style="stroke: #000000"
             id="use69" />
        </g>
      </g>
      <g
         id="line2d_19">
        <g
           clip-path="url(#pabea1d7de5)"
           id="g72">
          <use
             xlink:href="#m43963766b8"
             x="164.683182"
             y="228.444178"
             style="stroke: #000000"
             id="use70" />
          <use
             xlink:href="#m43963766b8"
             x="318.115"
             y="325.544736"
             style="stroke: #000000"
             id="use71" />
          <use
             xlink:href="#m43963766b8"
             x="471.546818"
             y="192.21427"
             style="stroke: #000000"
             id="use72" />
        </g>
      </g>
      <g
         id="patch_6">
        <path
           d="M 81.83 332.2  L 81.83 49.2  "
           style="fill: none; stroke: #000000; stroke-width: 0.8; stroke-linejoin: miter; stroke-linecap: square"
           id="path72" />
      </g>
      <g
         id="patch_7">
        <path
           d="M 554.4 332.2  L 554.4 49.2  "
           style="fill: none; stroke: #000000; stroke-width: 0.8; stroke-linejoin: miter; stroke-linecap: square"
           id="path73" />
      </g>
      <g
         id="patch_8">
        <path
           d="M 81.83 332.2  L 554.4 332.2  "
           style="fill: none; stroke: #000000; stroke-width: 0.8; stroke-linejoin: miter; stroke-linecap: square"
           id="path74" />
      </g>
      <g
         id="patch_9">
        <path
           d="M 81.83 49.2  L 554.4 49.2  "
           style="fill: none; stroke: #000000; stroke-width: 0.8; stroke-linejoin: miter; stroke-linecap: square"
           id="path75" />
      </g>
      <g
         id="text_13"
         transform="translate(81.095484,-10.265251)">
        <!-- % inactivated SARS-CoV-2 detected for each sampler -->
        <g
           transform="matrix(0.28,0,0,-0.28,-55.569063,43.2)"
           id="g124">
          <defs
             id="defs75">
            <path
               id="DejaVuSans-76"
               d="M 191,3500 H 800 L 1894,563 2988,3500 h 609 L 2284,0 h -781 z"
               transform="scale(0.015625)" />
            <path
               id="DejaVuSans-64"
               d="m 2906,2969 v 1894 h 575 V 0 H 2906 V 525 Q 2725,213 2448,61 2172,-91 1784,-91 1150,-91 751,415 353,922 353,1747 q 0,825 398,1331 399,506 1033,506 388,0 664,-152 277,-151 458,-463 z M 947,1747 q 0,-634 261,-995 261,-361 717,-361 456,0 718,361 263,361 263,995 0,634 -263,995 -262,361 -718,361 -456,0 -717,-361 -261,-361 -261,-995 z"
               transform="scale(0.015625)" />
            <path
               id="DejaVuSans-52"
               d="m 2841,2188 q 203,-69 395,-294 192,-225 386,-619 L 4263,0 h -679 l -596,1197 q -232,469 -449,622 -217,153 -592,153 H 1259 V 0 H 628 v 4666 h 1425 q 800,0 1194,-335 394,-334 394,-1009 0,-441 -205,-732 -205,-290 -595,-402 z M 1259,4147 V 2491 h 794 q 456,0 689,211 233,211 233,620 0,409 -233,617 -233,208 -689,208 z"
               transform="scale(0.015625)" />
            <path
               id="DejaVuSans-2d"
               d="M 313,2009 H 1997 V 1497 H 313 Z"
               transform="scale(0.015625)" />
            <path
               id="DejaVuSans-56"
               d="M 1831,0 50,4666 H 709 L 2188,738 3669,4666 h 656 L 2547,0 Z"
               transform="scale(0.015625)" />
            <path
               id="DejaVuSans-66"
               d="m 2375,4863 v -479 h -550 q -309,0 -430,-125 -120,-125 -120,-450 v -309 h 947 V 3053 H 1275 V 0 H 697 V 3053 H 147 v 447 h 550 v 244 q 0,584 272,851 272,268 862,268 z"
               transform="scale(0.015625)" />
            <path
               id="DejaVuSans-68"
               d="M 3513,2113 V 0 h -575 v 2094 q 0,497 -194,743 -194,247 -581,247 -466,0 -735,-297 -269,-296 -269,-809 V 0 H 581 v 4863 h 578 V 2956 q 207,316 486,472 280,156 646,156 603,0 912,-373 310,-373 310,-1098 z"
               transform="scale(0.015625)" />
          </defs>
          <use
             xlink:href="#DejaVuSans-25"
             id="use75" />
          <use
             xlink:href="#DejaVuSans-20"
             x="95.019531"
             id="use76" />
          <use
             xlink:href="#DejaVuSans-69"
             x="126.80664"
             id="use77" />
          <use
             xlink:href="#DejaVuSans-6e"
             x="154.58984"
             id="use78" />
          <use
             xlink:href="#DejaVuSans-61"
             x="217.96875"
             id="use79" />
          <use
             xlink:href="#DejaVuSans-63"
             x="279.24805"
             id="use80" />
          <use
             xlink:href="#DejaVuSans-74"
             x="334.22852"
             id="use81" />
          <use
             xlink:href="#DejaVuSans-69"
             x="373.4375"
             id="use82" />
          <use
             xlink:href="#DejaVuSans-76"
             x="401.2207"
             id="use83" />
          <use
             xlink:href="#DejaVuSans-61"
             x="460.40039"
             id="use84" />
          <use
             xlink:href="#DejaVuSans-74"
             x="521.67969"
             id="use85" />
          <use
             xlink:href="#DejaVuSans-65"
             x="560.88867"
             id="use86" />
          <use
             xlink:href="#DejaVuSans-64"
             x="622.41211"
             id="use87" />
          <use
             xlink:href="#DejaVuSans-20"
             x="685.88867"
             id="use88" />
          <use
             xlink:href="#DejaVuSans-53"
             x="717.67578"
             id="use89" />
          <use
             xlink:href="#DejaVuSans-41"
             x="783.02734"
             id="use90" />
          <use
             xlink:href="#DejaVuSans-52"
             x="851.43555"
             id="use91" />
          <use
             xlink:href="#DejaVuSans-53"
             x="920.91797"
             id="use92" />
          <use
             xlink:href="#DejaVuSans-2d"
             x="984.39453"
             id="use93" />
          <use
             xlink:href="#DejaVuSans-43"
             x="1020.4785"
             id="use94" />
          <use
             xlink:href="#DejaVuSans-6f"
             x="1090.3027"
             id="use95" />
          <use
             xlink:href="#DejaVuSans-56"
             x="1151.4844"
             id="use96" />
          <use
             xlink:href="#DejaVuSans-2d"
             x="1214.0176"
             id="use97" />
          <use
             xlink:href="#DejaVuSans-32"
             x="1250.1016"
             id="use98" />
          <use
             xlink:href="#DejaVuSans-20"
             x="1313.7246"
             id="use99" />
          <use
             xlink:href="#DejaVuSans-64"
             x="1345.5117"
             id="use100" />
          <use
             xlink:href="#DejaVuSans-65"
             x="1408.9883"
             id="use101" />
          <use
             xlink:href="#DejaVuSans-74"
             x="1470.5117"
             id="use102" />
          <use
             xlink:href="#DejaVuSans-65"
             x="1509.7207"
             id="use103" />
          <use
             xlink:href="#DejaVuSans-63"
             x="1571.2441"
             id="use104" />
          <use
             xlink:href="#DejaVuSans-74"
             x="1626.2246"
             id="use105" />
          <use
             xlink:href="#DejaVuSans-65"
             x="1665.4336"
             id="use106" />
          <use
             xlink:href="#DejaVuSans-64"
             x="1726.957"
             id="use107" />
          <use
             xlink:href="#DejaVuSans-20"
             x="1790.4336"
             id="use108" />
          <use
             xlink:href="#DejaVuSans-66"
             x="1822.2207"
             id="use109" />
          <use
             xlink:href="#DejaVuSans-6f"
             x="1857.4258"
             id="use110" />
          <use
             xlink:href="#DejaVuSans-72"
             x="1918.6074"
             id="use111" />
          <use
             xlink:href="#DejaVuSans-20"
             x="1959.7207"
             id="use112" />
          <use
             xlink:href="#DejaVuSans-65"
             x="1991.5078"
             id="use113" />
          <use
             xlink:href="#DejaVuSans-61"
             x="2053.0312"
             id="use114" />
          <use
             xlink:href="#DejaVuSans-63"
             x="2114.3105"
             id="use115" />
          <use
             xlink:href="#DejaVuSans-68"
             x="2169.291"
             id="use116" />
          <use
             xlink:href="#DejaVuSans-20"
             x="2232.6699"
             id="use117" />
          <use
             xlink:href="#DejaVuSans-73"
             x="2264.457"
             id="use118" />
          <use
             xlink:href="#DejaVuSans-61"
             x="2316.5566"
             id="use119" />
          <use
             xlink:href="#DejaVuSans-6d"
             x="2377.8359"
             id="use120" />
          <use
             xlink:href="#DejaVuSans-70"
             x="2475.248"
             id="use121" />
          <use
             xlink:href="#DejaVuSans-6c"
             x="2538.7246"
             id="use122" />
          <use
             xlink:href="#DejaVuSans-65"
             x="2566.5078"
             id="use123" />
          <use
             xlink:href="#DejaVuSans-72"
             x="2628.0312"
             id="use124" />
        </g>
      </g>
    </g>
  </g>
  <defs
     id="defs124">
    <clipPath
       id="pabea1d7de5">
      <rect
         x="81.83"
         y="49.2"
         width="472.57"
         height="283"
         id="rect124" />
    </clipPath>
  </defs>
</svg>
