<svg class="main-svg" xmlns="http://www.w3.org/2000/svg" xmlns:xlink="http://www.w3.org/1999/xlink" width="900" height="700" style="" viewBox="0 0 900 700"><rect x="0" y="0" width="900" height="700" style="fill: rgb(255, 255, 255); fill-opacity: 1;"/><defs id="defs-0bed77"><g class="clips"><clipPath id="clip0bed77xyplot" class="plotclip"><rect width="740" height="480"/></clipPath><clipPath class="axesclip" id="clip0bed77x"><rect x="80" y="0" width="740" height="700"/></clipPath><clipPath class="axesclip" id="clip0bed77y"><rect x="0" y="100" width="900" height="480"/></clipPath><clipPath class="axesclip" id="clip0bed77xy"><rect x="80" y="100" width="740" height="480"/></clipPath></g><g class="gradients"/><g class="patterns"/></defs><g class="bglayer"><rect class="bg" x="80" y="100" width="740" height="480" style="fill: rgb(229, 236, 246); fill-opacity: 1; stroke-width: 0;"/></g><g class="layer-below"><g class="imagelayer"/><g class="shapelayer"/></g><g class="cartesianlayer"><g class="subplot xy"><g class="layer-subplot"><g class="shapelayer"/><g class="imagelayer"/></g><g class="minor-gridlayer"><g class="x"/><g class="y"/></g><g class="gridlayer"><g class="x"><path class="xgrid crisp" transform="translate(168.29000000000002,0)" d="M0,100v480" style="stroke: rgb(255, 255, 255); stroke-opacity: 1; stroke-width: 1px;"/><path class="xgrid crisp" transform="translate(238.71,0)" d="M0,100v480" style="stroke: rgb(255, 255, 255); stroke-opacity: 1; stroke-width: 1px;"/><path class="xgrid crisp" transform="translate(344.35,0)" d="M0,100v480" style="stroke: rgb(255, 255, 255); stroke-opacity: 1; stroke-width: 1px;"/><path class="xgrid crisp" transform="translate(414.77,0)" d="M0,100v480" style="stroke: rgb(255, 255, 255); stroke-opacity: 1; stroke-width: 1px;"/><path class="xgrid crisp" transform="translate(520.4100000000001,0)" d="M0,100v480" style="stroke: rgb(255, 255, 255); stroke-opacity: 1; stroke-width: 1px;"/><path class="xgrid crisp" transform="translate(590.8299999999999,0)" d="M0,100v480" style="stroke: rgb(255, 255, 255); stroke-opacity: 1; stroke-width: 1px;"/><path class="xgrid crisp" transform="translate(696.47,0)" d="M0,100v480" style="stroke: rgb(255, 255, 255); stroke-opacity: 1; stroke-width: 1px;"/><path class="xgrid crisp" transform="translate(766.89,0)" d="M0,100v480" style="stroke: rgb(255, 255, 255); stroke-opacity: 1; stroke-width: 1px;"/></g><g class="y"><path class="ygrid crisp" transform="translate(0,500)" d="M80,0h740" style="stroke: rgb(255, 255, 255); stroke-opacity: 1; stroke-width: 1px;"/><path class="ygrid crisp" transform="translate(0,420)" d="M80,0h740" style="stroke: rgb(255, 255, 255); stroke-opacity: 1; stroke-width: 1px;"/><path class="ygrid crisp" transform="translate(0,340)" d="M80,0h740" style="stroke: rgb(255, 255, 255); stroke-opacity: 1; stroke-width: 1px;"/><path class="ygrid crisp" transform="translate(0,260)" d="M80,0h740" style="stroke: rgb(255, 255, 255); stroke-opacity: 1; stroke-width: 1px;"/><path class="ygrid crisp" transform="translate(0,180)" d="M80,0h740" style="stroke: rgb(255, 255, 255); stroke-opacity: 1; stroke-width: 1px;"/></g></g><g class="zerolinelayer"><path class="xzl zl crisp" transform="translate(203.5,0)" d="M0,100v480" style="stroke: rgb(255, 255, 255); stroke-opacity: 1; stroke-width: 2px;"/><path class="yzl zl crisp" transform="translate(0,580)" d="M80,0h740" style="stroke: rgb(255, 255, 255); stroke-opacity: 1; stroke-width: 2px;"/></g><g class="layer-between"><g class="shapelayer"/><g class="imagelayer"/></g><path class="xlines-below"/><path class="ylines-below"/><g class="overlines-below"/><g class="xaxislayer-below"/><g class="yaxislayer-below"/><g class="overaxes-below"/><g class="overplot"><g class="xy" transform="translate(80,100)" clip-path="url(#clip0bed77xyplot)"><g class="scatterlayer mlayer"><g class="trace scatter trace1eea02" style="stroke-miterlimit: 2; opacity: 1;"><g class="fills"/><g class="errorbars"/><g class="lines"><path class="js-line" d="M88.29,458.26L88.29,422.47" style="vector-effect: none; fill: none; stroke: rgb(100, 100, 100); stroke-opacity: 0.7; stroke-width: 4px; opacity: 1;"/></g><g class="points"/><g class="text"/></g><g class="trace scatter trace44add3" style="stroke-miterlimit: 2; opacity: 1;"><g class="fills"/><g class="errorbars"/><g class="lines"/><g class="points"><path class="point" transform="translate(88.29,442.77)" d="M10.4,0L0,10.4L-10.4,0L0,-10.4Z" style="opacity: 1; stroke-width: 0px; fill: rgb(255, 165, 0); fill-opacity: 1;"/></g><g class="text"/></g><g class="trace scatter trace7e595f" style="stroke-miterlimit: 2; opacity: 1;"><g class="fills"/><g class="errorbars"/><g class="lines"><path class="js-line" d="M158.71,456.46L158.71,445.49" style="vector-effect: none; fill: none; stroke: rgb(100, 100, 100); stroke-opacity: 0.7; stroke-width: 4px; opacity: 1;"/></g><g class="points"/><g class="text"/></g><g class="trace scatter trace8583f7" style="stroke-miterlimit: 2; opacity: 1;"><g class="fills"/><g class="errorbars"/><g class="lines"/><g class="points"><path class="point" transform="translate(158.71,452.49)" d="M10.4,0L0,10.4L-10.4,0L0,-10.4Z" style="opacity: 1; stroke-width: 0px; fill: rgb(255, 165, 0); fill-opacity: 1;"/></g><g class="text"/></g><g class="trace scatter trace50de7a" style="stroke-miterlimit: 2; opacity: 1;"><g class="fills"/><g class="errorbars"/><g class="lines"><path class="js-line" d="M264.35,467.13L264.35,394.32" style="vector-effect: none; fill: none; stroke: rgb(100, 100, 100); stroke-opacity: 0.7; stroke-width: 4px; opacity: 1;"/></g><g class="points"/><g class="text"/></g><g class="trace scatter tracefa50d3" style="stroke-miterlimit: 2; opacity: 1;"><g class="fills"/><g class="errorbars"/><g class="lines"/><g class="points"><path class="point" transform="translate(264.35,440.72)" d="M10.4,0L0,10.4L-10.4,0L0,-10.4Z" style="opacity: 1; stroke-width: 0px; fill: rgb(255, 165, 0); fill-opacity: 1;"/></g><g class="text"/></g><g class="trace scatter tracec3fcc0" style="stroke-miterlimit: 2; opacity: 1;"><g class="fills"/><g class="errorbars"/><g class="lines"><path class="js-line" d="M334.77,475.94L334.77,466.02" style="vector-effect: none; fill: none; stroke: rgb(100, 100, 100); stroke-opacity: 0.7; stroke-width: 4px; opacity: 1;"/></g><g class="points"/><g class="text"/></g><g class="trace scatter trace9a8858" style="stroke-miterlimit: 2; opacity: 1;"><g class="fills"/><g class="errorbars"/><g class="lines"/><g class="points"><path class="point" transform="translate(334.77,470.89)" d="M10.4,0L0,10.4L-10.4,0L0,-10.4Z" style="opacity: 1; stroke-width: 0px; fill: rgb(255, 165, 0); fill-opacity: 1;"/></g><g class="text"/></g><g class="trace scatter trace13201d" style="stroke-miterlimit: 2; opacity: 1;"><g class="fills"/><g class="errorbars"/><g class="lines"><path class="js-line" d="M440.41,323.1L440.41,285.64" style="vector-effect: none; fill: none; stroke: rgb(100, 100, 100); stroke-opacity: 0.7; stroke-width: 4px; opacity: 1;"/></g><g class="points"/><g class="text"/></g><g class="trace scatter trace221ea6" style="stroke-miterlimit: 2; opacity: 1;"><g class="fills"/><g class="errorbars"/><g class="lines"/><g class="points"><path class="point" transform="translate(440.41,309.89)" d="M10.4,0L0,10.4L-10.4,0L0,-10.4Z" style="opacity: 1; stroke-width: 0px; fill: rgb(255, 165, 0); fill-opacity: 1;"/></g><g class="text"/></g><g class="trace scatter tracecf7f56" style="stroke-miterlimit: 2; opacity: 1;"><g class="fills"/><g class="errorbars"/><g class="lines"><path class="js-line" d="M510.83,429.97L510.83,372.19" style="vector-effect: none; fill: none; stroke: rgb(100, 100, 100); stroke-opacity: 0.7; stroke-width: 4px; opacity: 1;"/></g><g class="points"/><g class="text"/></g><g class="trace scatter trace16291c" style="stroke-miterlimit: 2; opacity: 1;"><g class="fills"/><g class="errorbars"/><g class="lines"/><g class="points"><path class="point" transform="translate(510.83,395.53)" d="M10.4,0L0,10.4L-10.4,0L0,-10.4Z" style="opacity: 1; stroke-width: 0px; fill: rgb(255, 165, 0); fill-opacity: 1;"/></g><g class="text"/></g><g class="trace scatter trace84b727" style="stroke-miterlimit: 2; opacity: 1;"><g class="fills"/><g class="errorbars"/><g class="lines"><path class="js-line" d="M616.47,475.71L616.47,472.46" style="vector-effect: none; fill: none; stroke: rgb(100, 100, 100); stroke-opacity: 0.7; stroke-width: 4px; opacity: 1;"/></g><g class="points"/><g class="text"/></g><g class="trace scatter trace1fc26f" style="stroke-miterlimit: 2; opacity: 1;"><g class="fills"/><g class="errorbars"/><g class="lines"/><g class="points"><path class="point" transform="translate(616.47,473.98)" d="M10.4,0L0,10.4L-10.4,0L0,-10.4Z" style="opacity: 1; stroke-width: 0px; fill: rgb(255, 165, 0); fill-opacity: 1;"/></g><g class="text"/></g><g class="trace scatter trace313cb3" style="stroke-miterlimit: 2; opacity: 1;"><g class="fills"/><g class="errorbars"/><g class="lines"><path class="js-line" d="M686.89,477.88L686.89,473.28" style="vector-effect: none; fill: none; stroke: rgb(100, 100, 100); stroke-opacity: 0.7; stroke-width: 4px; opacity: 1;"/></g><g class="points"/><g class="text"/></g><g class="trace scatter trace011ca5" style="stroke-miterlimit: 2; opacity: 1;"><g class="fills"/><g class="errorbars"/><g class="lines"/><g class="points"><path class="point" transform="translate(686.89,476.13)" d="M10.4,0L0,10.4L-10.4,0L0,-10.4Z" style="opacity: 1; stroke-width: 0px; fill: rgb(255, 165, 0); fill-opacity: 1;"/></g><g class="text"/></g><g class="trace scatter tracee85c24" style="stroke-miterlimit: 2; opacity: 1;"><g class="fills"/><g class="errorbars"/><g class="lines"/><g class="points"><path class="point" transform="translate(92.96,458.26)" d="M6,0A6,6 0 1,1 0,-6A6,6 0 0,1 6,0Z" style="opacity: 1; stroke-width: 0px; fill: rgb(0, 0, 255); fill-opacity: 1;"/><path class="point" transform="translate(80.26,447.57)" d="M6,0A6,6 0 1,1 0,-6A6,6 0 0,1 6,0Z" style="opacity: 1; stroke-width: 0px; fill: rgb(0, 0, 255); fill-opacity: 1;"/><path class="point" transform="translate(85.34,422.47)" d="M6,0A6,6 0 1,1 0,-6A6,6 0 0,1 6,0Z" style="opacity: 1; stroke-width: 0px; fill: rgb(0, 0, 255); fill-opacity: 1;"/><path class="point" transform="translate(152.28,455.52)" d="M6,0A6,6 0 1,1 0,-6A6,6 0 0,1 6,0Z" style="opacity: 1; stroke-width: 0px; fill: rgb(255, 0, 0); fill-opacity: 1;"/><path class="point" transform="translate(155.33,456.46)" d="M6,0A6,6 0 1,1 0,-6A6,6 0 0,1 6,0Z" style="opacity: 1; stroke-width: 0px; fill: rgb(255, 0, 0); fill-opacity: 1;"/><path class="point" transform="translate(150.89,445.49)" d="M6,0A6,6 0 1,1 0,-6A6,6 0 0,1 6,0Z" style="opacity: 1; stroke-width: 0px; fill: rgb(255, 0, 0); fill-opacity: 1;"/><path class="point" transform="translate(272.52,460.7)" d="M6,0A6,6 0 1,1 0,-6A6,6 0 0,1 6,0Z" style="opacity: 1; stroke-width: 0px; fill: rgb(0, 0, 255); fill-opacity: 1;"/><path class="point" transform="translate(263.23,467.13)" d="M6,0A6,6 0 1,1 0,-6A6,6 0 0,1 6,0Z" style="opacity: 1; stroke-width: 0px; fill: rgb(0, 0, 255); fill-opacity: 1;"/><path class="point" transform="translate(263.38,394.32)" d="M6,0A6,6 0 1,1 0,-6A6,6 0 0,1 6,0Z" style="opacity: 1; stroke-width: 0px; fill: rgb(0, 0, 255); fill-opacity: 1;"/><path class="point" transform="translate(342.89,470.72)" d="M6,0A6,6 0 1,1 0,-6A6,6 0 0,1 6,0Z" style="opacity: 1; stroke-width: 0px; fill: rgb(255, 0, 0); fill-opacity: 1;"/><path class="point" transform="translate(330.34,475.94)" d="M6,0A6,6 0 1,1 0,-6A6,6 0 0,1 6,0Z" style="opacity: 1; stroke-width: 0px; fill: rgb(255, 0, 0); fill-opacity: 1;"/><path class="point" transform="translate(326.94,466.02)" d="M6,0A6,6 0 1,1 0,-6A6,6 0 0,1 6,0Z" style="opacity: 1; stroke-width: 0px; fill: rgb(255, 0, 0); fill-opacity: 1;"/><path class="point" transform="translate(446.35,323.1)" d="M6,0A6,6 0 1,1 0,-6A6,6 0 0,1 6,0Z" style="opacity: 1; stroke-width: 0px; fill: rgb(0, 0, 255); fill-opacity: 1;"/><path class="point" transform="translate(445.2,285.64)" d="M6,0A6,6 0 1,1 0,-6A6,6 0 0,1 6,0Z" style="opacity: 1; stroke-width: 0px; fill: rgb(0, 0, 255); fill-opacity: 1;"/><path class="point" transform="translate(440.07,320.92)" d="M6,0A6,6 0 1,1 0,-6A6,6 0 0,1 6,0Z" style="opacity: 1; stroke-width: 0px; fill: rgb(0, 0, 255); fill-opacity: 1;"/><path class="point" transform="translate(514.07,384.44)" d="M6,0A6,6 0 1,1 0,-6A6,6 0 0,1 6,0Z" style="opacity: 1; stroke-width: 0px; fill: rgb(255, 0, 0); fill-opacity: 1;"/><path class="point" transform="translate(518.07,429.97)" d="M6,0A6,6 0 1,1 0,-6A6,6 0 0,1 6,0Z" style="opacity: 1; stroke-width: 0px; fill: rgb(255, 0, 0); fill-opacity: 1;"/><path class="point" transform="translate(514.88,372.19)" d="M6,0A6,6 0 1,1 0,-6A6,6 0 0,1 6,0Z" style="opacity: 1; stroke-width: 0px; fill: rgb(255, 0, 0); fill-opacity: 1;"/><path class="point" transform="translate(607.88,473.77)" d="M6,0A6,6 0 1,1 0,-6A6,6 0 0,1 6,0Z" style="opacity: 1; stroke-width: 0px; fill: rgb(0, 0, 255); fill-opacity: 1;"/><path class="point" transform="translate(624.72,472.46)" d="M6,0A6,6 0 1,1 0,-6A6,6 0 0,1 6,0Z" style="opacity: 1; stroke-width: 0px; fill: rgb(0, 0, 255); fill-opacity: 1;"/><path class="point" transform="translate(623.86,475.71)" d="M6,0A6,6 0 1,1 0,-6A6,6 0 0,1 6,0Z" style="opacity: 1; stroke-width: 0px; fill: rgb(0, 0, 255); fill-opacity: 1;"/><path class="point" transform="translate(685.71,477.25)" d="M6,0A6,6 0 1,1 0,-6A6,6 0 0,1 6,0Z" style="opacity: 1; stroke-width: 0px; fill: rgb(255, 0, 0); fill-opacity: 1;"/><path class="point" transform="translate(695.5,477.88)" d="M6,0A6,6 0 1,1 0,-6A6,6 0 0,1 6,0Z" style="opacity: 1; stroke-width: 0px; fill: rgb(255, 0, 0); fill-opacity: 1;"/><path class="point" transform="translate(684.85,473.28)" d="M6,0A6,6 0 1,1 0,-6A6,6 0 0,1 6,0Z" style="opacity: 1; stroke-width: 0px; fill: rgb(255, 0, 0); fill-opacity: 1;"/></g><g class="text"/></g></g></g></g><path class="xlines-above crisp" d="M0,0" style="fill: none;"/><path class="ylines-above crisp" d="M0,0" style="fill: none;"/><g class="overlines-above"/><g class="xaxislayer-above"><g class="xtick"><text text-anchor="middle" x="0" y="609" transform="translate(168.29000000000002,0)" style="font-family: 'Open Sans', verdana, arial, sans-serif; font-size: 28px; fill: rgb(42, 63, 95); fill-opacity: 1; white-space: pre; opacity: 1;"><tspan style="font-size:18px">Low</tspan></text></g><g class="xtick"><text text-anchor="middle" x="0" y="609" style="font-family: 'Open Sans', verdana, arial, sans-serif; font-size: 28px; fill: rgb(42, 63, 95); fill-opacity: 1; white-space: pre; opacity: 1;" transform="translate(238.71,0)"><tspan style="font-size:18px">High</tspan></text></g><g class="xtick"><text text-anchor="middle" x="0" y="609" style="font-family: 'Open Sans', verdana, arial, sans-serif; font-size: 28px; fill: rgb(42, 63, 95); fill-opacity: 1; white-space: pre; opacity: 1;" transform="translate(344.35,0)"><tspan style="font-size:18px">Low</tspan></text></g><g class="xtick"><text text-anchor="middle" x="0" y="609" style="font-family: 'Open Sans', verdana, arial, sans-serif; font-size: 28px; fill: rgb(42, 63, 95); fill-opacity: 1; white-space: pre; opacity: 1;" transform="translate(414.77,0)"><tspan style="font-size:18px">High</tspan></text></g><g class="xtick"><text text-anchor="middle" x="0" y="609" style="font-family: 'Open Sans', verdana, arial, sans-serif; font-size: 28px; fill: rgb(42, 63, 95); fill-opacity: 1; white-space: pre; opacity: 1;" transform="translate(520.4100000000001,0)"><tspan style="font-size:18px">Low</tspan></text></g><g class="xtick"><text text-anchor="middle" x="0" y="609" style="font-family: 'Open Sans', verdana, arial, sans-serif; font-size: 28px; fill: rgb(42, 63, 95); fill-opacity: 1; white-space: pre; opacity: 1;" transform="translate(590.8299999999999,0)"><tspan style="font-size:18px">High</tspan></text></g><g class="xtick"><text text-anchor="middle" x="0" y="609" style="font-family: 'Open Sans', verdana, arial, sans-serif; font-size: 28px; fill: rgb(42, 63, 95); fill-opacity: 1; white-space: pre; opacity: 1;" transform="translate(696.47,0)"><tspan style="font-size:18px">Low</tspan></text></g><g class="xtick"><text text-anchor="middle" x="0" y="609" style="font-family: 'Open Sans', verdana, arial, sans-serif; font-size: 28px; fill: rgb(42, 63, 95); fill-opacity: 1; white-space: pre; opacity: 1;" transform="translate(766.89,0)"><tspan style="font-size:18px">High</tspan></text></g></g><g class="yaxislayer-above"><g class="ytick"><text text-anchor="end" x="79" y="4.199999999999999" transform="translate(0,580)" style="font-family: 'Open Sans', verdana, arial, sans-serif; font-size: 12px; fill: rgb(42, 63, 95); fill-opacity: 1; white-space: pre; opacity: 1;">0%</text></g><g class="ytick"><text text-anchor="end" x="79" y="4.199999999999999" style="font-family: 'Open Sans', verdana, arial, sans-serif; font-size: 12px; fill: rgb(42, 63, 95); fill-opacity: 1; white-space: pre; opacity: 1;" transform="translate(0,500)">10%</text></g><g class="ytick"><text text-anchor="end" x="79" y="4.199999999999999" style="font-family: 'Open Sans', verdana, arial, sans-serif; font-size: 12px; fill: rgb(42, 63, 95); fill-opacity: 1; white-space: pre; opacity: 1;" transform="translate(0,420)">20%</text></g><g class="ytick"><text text-anchor="end" x="79" y="4.199999999999999" style="font-family: 'Open Sans', verdana, arial, sans-serif; font-size: 12px; fill: rgb(42, 63, 95); fill-opacity: 1; white-space: pre; opacity: 1;" transform="translate(0,340)">30%</text></g><g class="ytick"><text text-anchor="end" x="79" y="4.199999999999999" style="font-family: 'Open Sans', verdana, arial, sans-serif; font-size: 12px; fill: rgb(42, 63, 95); fill-opacity: 1; white-space: pre; opacity: 1;" transform="translate(0,260)">40%</text></g><g class="ytick"><text text-anchor="end" x="79" y="4.199999999999999" style="font-family: 'Open Sans', verdana, arial, sans-serif; font-size: 12px; fill: rgb(42, 63, 95); fill-opacity: 1; white-space: pre; opacity: 1;" transform="translate(0,180)">50%</text></g><g class="ytick"><text text-anchor="end" x="79" y="4.199999999999999" style="font-family: 'Open Sans', verdana, arial, sans-serif; font-size: 12px; fill: rgb(42, 63, 95); fill-opacity: 1; white-space: pre; opacity: 1;" transform="translate(0,100)">60%</text></g></g><g class="overaxes-above"/></g></g><g class="polarlayer"/><g class="smithlayer"/><g class="ternarylayer"/><g class="geolayer"/><g class="funnelarealayer"/><g class="pielayer"/><g class="iciclelayer"/><g class="treemaplayer"/><g class="sunburstlayer"/><g class="glimages"/><defs id="topdefs-0bed77"><g class="clips"/></defs><g class="layer-above"><g class="imagelayer"/><g class="shapelayer"/></g><g class="infolayer"><g class="g-gtitle"><text class="gtitle" x="450" y="50" text-anchor="middle" dy="0em" style="opacity: 1; font-family: 'Open Sans', verdana, arial, sans-serif; font-size: 36px; fill: rgb(42, 63, 95); fill-opacity: 1; white-space: pre;"><tspan style="font-weight:bold">Virus test series 2</tspan></text></g><g class="g-xtitle"/><g class="g-ytitle" transform="translate(12.271484375,0)"><text class="ytitle" transform="rotate(-90,23.728125,340)" x="23.728125" y="340" text-anchor="middle" style="opacity: 1; font-family: 'Open Sans', verdana, arial, sans-serif; font-size: 36px; fill: rgb(42, 63, 95); fill-opacity: 1; white-space: pre;">Efficiency</text></g><g class="annotation" data-index="0" style="opacity: 1;"><g class="annotation-text-g" transform="rotate(0,203.5,676)"><g class="cursor-pointer" transform="translate(80,652)"><rect class="bg" x="0.5" y="0.5" width="246" height="47" style="stroke-width: 1px; stroke: rgb(0, 0, 0); stroke-opacity: 0; fill: rgb(0, 0, 0); fill-opacity: 0;"/><text class="annotation-text" text-anchor="middle" x="123.40625" y="38" style="font-family: 'Open Sans', verdana, arial, sans-serif; font-size: 36px; fill: rgb(42, 63, 95); fill-opacity: 1; white-space: pre;">AerosolSense</text></g></g></g><g class="annotation" data-index="1" style="opacity: 1;"><g class="annotation-text-g" transform="rotate(0,379.56,676)"><g class="cursor-pointer" transform="translate(322,652)"><rect class="bg" x="0.5" y="0.5" width="114" height="47" style="stroke-width: 1px; stroke: rgb(0, 0, 0); stroke-opacity: 0; fill: rgb(0, 0, 0); fill-opacity: 0;"/><text class="annotation-text" text-anchor="middle" x="57.25" y="38" style="font-family: 'Open Sans', verdana, arial, sans-serif; font-size: 36px; fill: rgb(42, 63, 95); fill-opacity: 1; white-space: pre;">Apollo</text></g></g></g><g class="annotation" data-index="2" style="opacity: 1;"><g class="annotation-text-g" transform="rotate(0,555.62,676)"><g class="cursor-pointer" transform="translate(519,652)"><rect class="bg" x="0.5" y="0.5" width="73" height="47" style="stroke-width: 1px; stroke: rgb(0, 0, 0); stroke-opacity: 0; fill: rgb(0, 0, 0); fill-opacity: 0;"/><text class="annotation-text" text-anchor="middle" x="37.1875" y="38" style="font-family: 'Open Sans', verdana, arial, sans-serif; font-size: 36px; fill: rgb(42, 63, 95); fill-opacity: 1; white-space: pre;">Cub</text></g></g></g><g class="annotation" data-index="3" style="opacity: 1;"><g class="annotation-text-g" transform="rotate(0,731.68,676)"><g class="cursor-pointer" transform="translate(668,652)"><rect class="bg" x="0.5" y="0.5" width="126" height="47" style="stroke-width: 1px; stroke: rgb(0, 0, 0); stroke-opacity: 0; fill: rgb(0, 0, 0); fill-opacity: 0;"/><text class="annotation-text" text-anchor="middle" x="63.65625" y="38" style="font-family: 'Open Sans', verdana, arial, sans-serif; font-size: 36px; fill: rgb(42, 63, 95); fill-opacity: 1; white-space: pre;">Inkfish</text></g></g></g></g></svg>